<svg width="3571" height="1717" xmlns="http://www.w3.org/2000/svg" xmlns:xlink="http://www.w3.org/1999/xlink" xml:space="preserve" overflow="hidden"><g transform="translate(-365 -551)"><rect x="367.5" y="2048.5" width="3566" height="217" stroke="#392342" stroke-width="4.58333" stroke-miterlimit="8" fill="#8F5DA2"/><text fill="#FFFFFF" font-family="IntelOne Text Light,IntelOne Text Light_MSFontService,sans-serif" font-weight="300" font-size="83" transform="matrix(1 0 0 1 1762.05 2183)">OpenVINO Runtime</text><rect x="2167.5" y="1321.5" width="1546" height="218" stroke="#00284A" stroke-width="4.58333" stroke-miterlimit="8" fill="#0068B5"/><text fill="#FFFFFF" font-family="IntelOne Text Light,IntelOne Text Light_MSFontService,sans-serif" font-weight="300" font-size="83" transform="matrix(1 0 0 1 2491.39 1456)">Black</text><text fill="#FFFFFF" font-family="IntelOne Text Light,IntelOne Text Light_MSFontService,sans-serif" font-weight="300" font-size="83" transform="matrix(1 0 0 1 2698.21 1456)">-</text><text fill="#FFFFFF" font-family="IntelOne Text Light,IntelOne Text Light_MSFontService,sans-serif" font-weight="300" font-size="83" transform="matrix(1 0 0 1 2727.43 1456)">Box XAI Methods</text><rect x="367.5" y="1794.5" width="1766" height="217" stroke="#00284A" stroke-width="4.58333" stroke-miterlimit="8" fill="#0068B5"/><text fill="#FFFFFF" font-family="IntelOne Text Light,IntelOne Text Light_MSFontService,sans-serif" font-weight="300" font-size="83" transform="matrix(1 0 0 1 1035 1929)">IR Insertion</text><rect x="367.5" y="1321.5" width="1546" height="218" stroke="#00284A" stroke-width="4.58333" stroke-miterlimit="8" fill="#0068B5"/><text fill="#FFFFFF" font-family="IntelOne Text Light,IntelOne Text Light_MSFontService,sans-serif" font-weight="300" font-size="83" transform="matrix(1 0 0 1 680.655 1456)">White</text><text fill="#FFFFFF" font-family="IntelOne Text Light,IntelOne Text Light_MSFontService,sans-serif" font-weight="300" font-size="83" transform="matrix(1 0 0 1 908.676 1456)">-</text><text fill="#FFFFFF" font-family="IntelOne Text Light,IntelOne Text Light_MSFontService,sans-serif" font-weight="300" font-size="83" transform="matrix(1 0 0 1 937.894 1456)">Box XAI Methods</text><rect x="367.5" y="1183.5" width="1766" height="134" stroke="#00536B" stroke-width="4.58333" stroke-miterlimit="8" fill="#00C7FD"/><text fill="#FFFFFF" font-family="IntelOne Text Light,IntelOne Text Light_MSFontService,sans-serif" font-weight="300" font-size="83" transform="matrix(1 0 0 1 708.728 1277)">White</text><text fill="#FFFFFF" font-family="IntelOne Text Light,IntelOne Text Light_MSFontService,sans-serif" font-weight="300" font-size="83" transform="matrix(1 0 0 1 936.749 1277)">-</text><text fill="#FFFFFF" font-family="IntelOne Text Light,IntelOne Text Light_MSFontService,sans-serif" font-weight="300" font-size="83" transform="matrix(1 0 0 1 965.968 1277)">Box XAI Method Base</text><rect x="2167.5" y="1183.5" width="1766" height="134" stroke="#00536B" stroke-width="4.58333" stroke-miterlimit="8" fill="#00C7FD"/><text fill="#FFFFFF" font-family="IntelOne Text Light,IntelOne Text Light_MSFontService,sans-serif" font-weight="300" font-size="83" transform="matrix(1 0 0 1 2519.46 1277)">Black</text><text fill="#FFFFFF" font-family="IntelOne Text Light,IntelOne Text Light_MSFontService,sans-serif" font-weight="300" font-size="83" transform="matrix(1 0 0 1 2726.29 1277)">-</text><text fill="#FFFFFF" font-family="IntelOne Text Light,IntelOne Text Light_MSFontService,sans-serif" font-weight="300" font-size="83" transform="matrix(1 0 0 1 2755.5 1277)">Box XAI Method Base</text><rect x="367.5" y="1003.5" width="3566" height="135" stroke="#0068B5" stroke-width="4.58333" stroke-miterlimit="8" fill="#FFFFFF"/><text fill="#525252" font-family="IntelOne Text Light,IntelOne Text Light_MSFontService,sans-serif" font-weight="300" font-size="83" transform="matrix(1 0 0 1 1742.29 1097)">XAI Method Interface</text><rect x="367.5" y="741.5" width="3566" height="217" stroke="#00284A" stroke-width="4.58333" stroke-miterlimit="8" fill="#0068B5"/><text fill="#FFFFFF" font-family="IntelOne Text Light,IntelOne Text Light_MSFontService,sans-serif" font-weight="300" font-size="83" transform="matrix(1 0 0 1 1668.38 876)">Explainer (Stateful Class)</text><rect x="367.5" y="558.5" width="1766" height="136" stroke="#0068B5" stroke-width="4.58333" stroke-miterlimit="8" fill="#FFFFFF"/><text fill="#525252" font-family="IntelOne Text Light,IntelOne Text Light_MSFontService,sans-serif" font-weight="300" font-size="83" transform="matrix(1 0 0 1 545.446 652)">API (Easy</text><text fill="#525252" font-family="IntelOne Text Light,IntelOne Text Light_MSFontService,sans-serif" font-weight="300" font-size="83" transform="matrix(1 0 0 1 919.56 652)">-</text><text fill="#525252" font-family="IntelOne Text Light,IntelOne Text Light_MSFontService,sans-serif" font-weight="300" font-size="83" transform="matrix(1 0 0 1 948.779 652)">to</text><text fill="#525252" font-family="IntelOne Text Light,IntelOne Text Light_MSFontService,sans-serif" font-weight="300" font-size="83" transform="matrix(1 0 0 1 1027.84 652)">-</text><text fill="#525252" font-family="IntelOne Text Light,IntelOne Text Light_MSFontService,sans-serif" font-weight="300" font-size="83" transform="matrix(1 0 0 1 1057.06 652)">use Stateless Function)</text><rect x="2167.5" y="558.5" width="1766" height="136" stroke="#0068B5" stroke-width="4.58333" stroke-miterlimit="8" stroke-dasharray="18.3333 13.75" fill="#FFFFFF"/><text fill="#525252" font-family="IntelOne Text Light,IntelOne Text Light_MSFontService,sans-serif" font-weight="300" font-size="83" transform="matrix(1 0 0 1 2850.03 652)">CLI (TBD)</text><rect x="2222.5" y="1376.5" width="1546" height="218" stroke="#00284A" stroke-width="4.58333" stroke-miterlimit="8" fill="#0068B5"/><text fill="#FFFFFF" font-family="IntelOne Text Light,IntelOne Text Light_MSFontService,sans-serif" font-weight="300" font-size="83" transform="matrix(1 0 0 1 2546.39 1511)">Black</text><text fill="#FFFFFF" font-family="IntelOne Text Light,IntelOne Text Light_MSFontService,sans-serif" font-weight="300" font-size="83" transform="matrix(1 0 0 1 2753.21 1511)">-</text><text fill="#FFFFFF" font-family="IntelOne Text Light,IntelOne Text Light_MSFontService,sans-serif" font-weight="300" font-size="83" transform="matrix(1 0 0 1 2782.43 1511)">Box XAI Methods</text><rect x="422.5" y="1376.5" width="1546" height="218" stroke="#00284A" stroke-width="4.58333" stroke-miterlimit="8" fill="#0068B5"/><text fill="#FFFFFF" font-family="IntelOne Text Light,IntelOne Text Light_MSFontService,sans-serif" font-weight="300" font-size="83" transform="matrix(1 0 0 1 735.655 1511)">White</text><text fill="#FFFFFF" font-family="IntelOne Text Light,IntelOne Text Light_MSFontService,sans-serif" font-weight="300" font-size="83" transform="matrix(1 0 0 1 963.676 1511)">-</text><text fill="#FFFFFF" font-family="IntelOne Text Light,IntelOne Text Light_MSFontService,sans-serif" font-weight="300" font-size="83" transform="matrix(1 0 0 1 992.894 1511)">Box XAI Methods</text><rect x="2277.5" y="1431.5" width="1546" height="218" stroke="#00284A" stroke-width="4.58333" stroke-miterlimit="8" fill="#0068B5"/><text fill="#FFFFFF" font-family="IntelOne Text Light,IntelOne Text Light_MSFontService,sans-serif" font-weight="300" font-size="83" transform="matrix(1 0 0 1 2601.39 1566)">Black</text><text fill="#FFFFFF" font-family="IntelOne Text Light,IntelOne Text Light_MSFontService,sans-serif" font-weight="300" font-size="83" transform="matrix(1 0 0 1 2808.21 1566)">-</text><text fill="#FFFFFF" font-family="IntelOne Text Light,IntelOne Text Light_MSFontService,sans-serif" font-weight="300" font-size="83" transform="matrix(1 0 0 1 2837.43 1566)">Box XAI Methods</text><rect x="477.5" y="1431.5" width="1546" height="218" stroke="#00284A" stroke-width="4.58333" stroke-miterlimit="8" fill="#0068B5"/><text fill="#FFFFFF" font-family="IntelOne Text Light,IntelOne Text Light_MSFontService,sans-serif" font-weight="300" font-size="83" transform="matrix(1 0 0 1 790.655 1566)">White</text><text fill="#FFFFFF" font-family="IntelOne Text Light,IntelOne Text Light_MSFontService,sans-serif" font-weight="300" font-size="83" transform="matrix(1 0 0 1 1018.68 1566)">-</text><text fill="#FFFFFF" font-family="IntelOne Text Light,IntelOne Text Light_MSFontService,sans-serif" font-weight="300" font-size="83" transform="matrix(1 0 0 1 1047.89 1566)">Box XAI Methods</text><rect x="2332.5" y="1486.5" width="1546" height="218" stroke="#00284A" stroke-width="4.58333" stroke-miterlimit="8" fill="#0068B5"/><text fill="#FFFFFF" font-family="IntelOne Text Light,IntelOne Text Light_MSFontService,sans-serif" font-weight="300" font-size="83" transform="matrix(1 0 0 1 2656.39 1621)">Black</text><text fill="#FFFFFF" font-family="IntelOne Text Light,IntelOne Text Light_MSFontService,sans-serif" font-weight="300" font-size="83" transform="matrix(1 0 0 1 2863.21 1621)">-</text><text fill="#FFFFFF" font-family="IntelOne Text Light,IntelOne Text Light_MSFontService,sans-serif" font-weight="300" font-size="83" transform="matrix(1 0 0 1 2892.43 1621)">Box XAI Methods</text><rect x="532.5" y="1486.5" width="1546" height="218" stroke="#00284A" stroke-width="4.58333" stroke-miterlimit="8" fill="#0068B5"/><text fill="#FFFFFF" font-family="IntelOne Text Light,IntelOne Text Light_MSFontService,sans-serif" font-weight="300" font-size="83" transform="matrix(1 0 0 1 845.655 1621)">White</text><text fill="#FFFFFF" font-family="IntelOne Text Light,IntelOne Text Light_MSFontService,sans-serif" font-weight="300" font-size="83" transform="matrix(1 0 0 1 1073.68 1621)">-</text><text fill="#FFFFFF" font-family="IntelOne Text Light,IntelOne Text Light_MSFontService,sans-serif" font-weight="300" font-size="83" transform="matrix(1 0 0 1 1102.89 1621)">Box XAI Methods</text><rect x="2387.5" y="1541.5" width="1546" height="218" stroke="#00284A" stroke-width="4.58333" stroke-miterlimit="8" fill="#0068B5"/><text fill="#FFFFFF" font-family="IntelOne Text Light,IntelOne Text Light_MSFontService,sans-serif" font-weight="300" font-size="83" transform="matrix(1 0 0 1 2711.39 1676)">Black</text><text fill="#FFFFFF" font-family="IntelOne Text Light,IntelOne Text Light_MSFontService,sans-serif" font-weight="300" font-size="83" transform="matrix(1 0 0 1 2918.21 1676)">-</text><text fill="#FFFFFF" font-family="IntelOne Text Light,IntelOne Text Light_MSFontService,sans-serif" font-weight="300" font-size="83" transform="matrix(1 0 0 1 2947.43 1676)">Box XAI Methods</text><rect x="587.5" y="1541.5" width="1546" height="218" stroke="#00284A" stroke-width="4.58333" stroke-miterlimit="8" fill="#0068B5"/><text fill="#FFFFFF" font-family="IntelOne Text Light,IntelOne Text Light_MSFontService,sans-serif" font-weight="300" font-size="83" transform="matrix(1 0 0 1 900.655 1676)">White</text><text fill="#FFFFFF" font-family="IntelOne Text Light,IntelOne Text Light_MSFontService,sans-serif" font-weight="300" font-size="83" transform="matrix(1 0 0 1 1128.68 1676)">-</text><text fill="#FFFFFF" font-family="IntelOne Text Light,IntelOne Text Light_MSFontService,sans-serif" font-weight="300" font-size="83" transform="matrix(1 0 0 1 1157.89 1676)">Box XAI Methods</text><rect x="3458.5" y="778.5" width="443" height="144" stroke="#00284A" stroke-width="4.58333" stroke-miterlimit="8" stroke-dasharray="18.3333 13.75" fill="#0068B5"/><text fill="#004A86" font-family="IntelOne Text Light,IntelOne Text Light_MSFontService,sans-serif" font-weight="300" font-size="83" transform="matrix(1 0 0 1 3535.82 876)">Metrics</text></g></svg>